<svg width="133" height="52" viewBox="0 0 133 52" fill="none" xmlns="http://www.w3.org/2000/svg">
<path d="M16.704 52H26.304L20.032 0.799999H6.912L0.64 52H10.24L10.944 43.296H16L16.704 52ZM11.712 33.696L13.504 10.976L15.232 33.696H11.712ZM47.829 0.799999H25.045V10.4H31.637V52H41.237V10.4H47.829V0.799999ZM66.0035 0.799999V21.6H59.9875V0.799999H50.3875V52H59.9875V31.2H66.0035V52H75.6035V0.799999H66.0035ZM93.6065 52H103.206L96.9345 0.799999H83.8145L77.5425 52H87.1425L87.8465 43.296H92.9025L93.6065 52ZM88.6145 33.696L90.4065 10.976L92.1345 33.696H88.6145ZM122.991 0.799999V26.08L114.735 0.799999H105.135V52H114.735V26.72L122.991 52H132.591V0.799999H122.991Z" fill="black"/>
</svg>
