<svg width="274" height="150" viewBox="0 0 274 150" fill="none" xmlns="http://www.w3.org/2000/svg">
<rect width="250.206" height="71.88" transform="matrix(0.998037 0.0626337 -0.0427061 0.999088 8.02148 0)" fill="#F80088"/>
<rect width="225.567" height="44.965" transform="matrix(0.996426 -0.0844706 0.0576452 0.998337 0 75.7263)" fill="#00C2AF"/>
<path d="M36.2582 11.8H26.6582V48.408C26.6582 52.76 26.3382 54.04 24.2262 54.04C22.1142 54.04 21.7942 52.76 21.7942 48.408V45.208H12.1942V49.048C12.1942 59.352 16.4822 63.64 24.2262 63.64C31.9702 63.64 36.2582 59.352 36.2582 49.048V11.8ZM50.8812 11.16C43.1372 11.16 38.8492 15.448 38.8492 25.752V49.048C38.8492 59.352 43.1372 63.64 50.8812 63.64C58.6252 63.64 62.9132 59.352 62.9132 49.048V25.752C62.9132 15.448 58.6252 11.16 50.8812 11.16ZM53.3132 48.408C53.3132 52.76 52.9932 54.04 50.8812 54.04C48.7692 54.04 48.4492 52.76 48.4492 48.408V26.392C48.4492 22.04 48.7692 20.76 50.8812 20.76C52.9932 20.76 53.3132 22.04 53.3132 26.392V48.408ZM114.709 63L79.8564 27.5078V63H65.9077V11.3408H81.0596L115.95 46.9834V11.3408H129.824V63H114.709ZM149.221 63H158.821L152.549 11.8H139.429L133.157 63H142.757L143.461 54.296H148.517L149.221 63ZM144.229 44.696L146.021 21.976L147.749 44.696H144.229ZM179.039 11.8H156.255V21.4H162.847V63H172.447V21.4H179.039V11.8ZM196.573 11.8V32.6H190.557V11.8H180.957V63H190.557V42.2H196.573V63H206.173V11.8H196.573ZM223.536 63H233.136L226.864 11.8H213.744L207.472 63H217.072L217.776 54.296H222.832L223.536 63ZM218.544 44.696L220.336 21.976L222.064 44.696H218.544ZM252.281 11.8V37.08L244.025 11.8H234.425V63H244.025V37.72L252.281 63H261.881V11.8H252.281Z" fill="black"/>
<path d="M27.8102 88.8V109.6H21.7942V88.8H12.1942V140H21.7942V119.2H27.8102V140H37.4102V88.8H27.8102ZM55.3982 140H64.9982L58.7262 88.8H45.6062L39.3342 140H48.9342L49.6382 131.296H54.6942L55.3982 140ZM50.4062 121.696L52.1982 98.976L53.9262 121.696H50.4062ZM84.7827 88.8V114.08L76.5267 88.8H66.9267V140H76.5267V114.72L84.7827 140H94.3827V88.8H84.7827Z" fill="white"/>
<path d="M28.3088 98.6H37.9088V91.752C37.9088 81.448 33.6208 77.16 25.8768 77.16C18.1328 77.16 13.8448 81.448 13.8448 91.752V115.048C13.8448 125.352 18.1328 129.64 25.8768 129.64C33.6208 129.64 37.9088 125.352 37.9088 115.048V108.2H28.3088V114.408C28.3088 118.76 27.9888 120.04 25.8768 120.04C23.7648 120.04 23.4448 118.76 23.4448 114.408V92.392C23.4448 88.04 23.7648 86.76 25.8768 86.76C27.9888 86.76 28.3088 88.04 28.3088 92.392V98.6ZM63.2838 77.8H53.6838V114.408C53.6838 118.76 53.3638 120.04 51.2518 120.04C49.1398 120.04 48.8198 118.76 48.8198 114.408V77.8H39.2198V115.048C39.2198 125.352 43.5078 129.64 51.2518 129.64C58.9958 129.64 63.2838 125.352 63.2838 115.048V77.8ZM87.3788 77.8H64.5948V87.4H71.1868V129H80.7868V87.4H87.3788V77.8ZM112.849 124.456V116.52C112.849 111.72 111.377 109.096 108.113 107.752C111.121 105.576 112.849 101.928 112.849 96.296V91.752C112.849 81.448 109.201 77.8 98.2573 77.8H88.6573V129H98.2573V110.248C101.969 110.248 103.249 110.888 103.249 114.6V124.456C103.249 126.376 103.313 128.232 103.953 129H113.553C112.913 128.232 112.849 126.376 112.849 124.456ZM103.249 91.752V96.296C103.249 100.008 101.969 100.648 98.2573 100.648V87.4C101.969 87.4 103.249 88.04 103.249 91.752ZM119.352 119.328H131.208V87.816H119.352V78.144H154.608V87.816H142.752V119.328H154.608V129H119.352V119.328ZM183.005 77.8L176.797 107.368L170.589 77.8H160.989V129H170.589V107.048L174.557 129H179.037L183.005 107.048V129H192.605V77.8H183.005Z" fill="black"/>
<path d="M232.767 101V93.8906H234.461C235.291 93.8906 235.936 94.151 236.395 94.6719C236.854 95.1895 237.083 95.9186 237.083 96.8594V98.0508C237.083 98.9915 236.85 99.7191 236.385 100.233C235.919 100.744 235.244 101 234.358 101H232.767ZM233.66 94.6621V100.233H234.378C235.006 100.233 235.465 100.054 235.755 99.6963C236.045 99.335 236.193 98.8011 236.199 98.0947V96.835C236.199 96.0863 236.054 95.5378 235.765 95.1895C235.478 94.8379 235.044 94.6621 234.461 94.6621H233.66ZM241.888 97.7139H239.373V100.233H242.303V101H238.479V93.8906H242.254V94.6621H239.373V96.9473H241.888V97.7139ZM245.481 99.6279L247.107 93.8906H248.089L245.877 101H245.096L242.889 93.8906H243.865L245.481 99.6279Z" fill="black"/>
<path d="M0 0V-1H-1V0H0ZM274 0H275V-1H274V0ZM274 150V151H275V150H274ZM0 150H-1V151H0V150ZM0 1H274V-1H0V1ZM273 0V150H275V0H273ZM274 149H0V151H274V149ZM1 150V0H-1V150H1Z" fill="white"/>
</svg>
