<svg width="332" height="150" viewBox="0 0 332 150" fill="none" xmlns="http://www.w3.org/2000/svg">
<rect x="9.71948" width="245.35" height="71.9106" transform="rotate(2.96489 9.71948 0)" fill="#F80088"/>
<rect y="75.7263" width="211" height="45" transform="rotate(-4.00211 0 75.7263)" fill="#00C2AF"/>
<path d="M38.704 9.8H29.104V46.408C29.104 50.76 28.784 52.04 26.672 52.04C24.56 52.04 24.24 50.76 24.24 46.408V43.208H14.64V47.048C14.64 57.352 18.928 61.64 26.672 61.64C34.416 61.64 38.704 57.352 38.704 47.048V9.8ZM53.327 9.16C45.583 9.16 41.295 13.448 41.295 23.752V47.048C41.295 57.352 45.583 61.64 53.327 61.64C61.071 61.64 65.359 57.352 65.359 47.048V23.752C65.359 13.448 61.071 9.16 53.327 9.16ZM55.759 46.408C55.759 50.76 55.439 52.04 53.327 52.04C51.215 52.04 50.895 50.76 50.895 46.408V24.392C50.895 20.04 51.215 18.76 53.327 18.76C55.439 18.76 55.759 20.04 55.759 24.392V46.408Z" fill="black"/>
<path d="M116.624 62L81.3184 26.0469V62H67.1885V9.66992H82.5371L117.881 45.7754V9.66992H131.935V62H116.624Z" fill="black"/>
<path d="M150.704 61H160.304L154.032 9.8H140.912L134.64 61H144.24L144.944 52.296H150L150.704 61ZM145.712 42.696L147.504 19.976L149.232 42.696H145.712ZM181.829 9.8H159.045V19.4H165.637V61H175.237V19.4H181.829V9.8ZM200.004 9.8V30.6H193.988V9.8H184.388V61H193.988V40.2H200.004V61H209.604V9.8H200.004ZM227.606 61H237.206L230.934 9.8H217.814L211.542 61H221.142L221.846 52.296H226.902L227.606 61ZM222.614 42.696L224.406 19.976L226.134 42.696H222.614ZM256.991 9.8V35.08L248.735 9.8H239.135V61H248.735V35.72L256.991 61H266.591V9.8H256.991Z" fill="black"/>
<path d="M217.767 98V90.8906H219.461C220.291 90.8906 220.936 91.151 221.395 91.6719C221.854 92.1895 222.083 92.9186 222.083 93.8594V95.0508C222.083 95.9915 221.85 96.7191 221.385 97.2334C220.919 97.7445 220.244 98 219.358 98H217.767ZM218.66 91.6621V97.2334H219.378C220.006 97.2334 220.465 97.0544 220.755 96.6963C221.045 96.335 221.193 95.8011 221.199 95.0947V93.835C221.199 93.0863 221.054 92.5378 220.765 92.1895C220.478 91.8379 220.044 91.6621 219.461 91.6621H218.66ZM226.888 94.7139H224.373V97.2334H227.303V98H223.479V90.8906H227.254V91.6621H224.373V93.9473H226.888V94.7139ZM230.481 96.6279L232.107 90.8906H233.089L230.877 98H230.096L227.889 90.8906H228.865L230.481 96.6279Z" fill="black"/>
</svg>
